HIERARCHY
ROOT hip
{
	OFFSET 0.000000 0.000000 0.000000 
	CHANNELS 6 Xposition Yposition Zposition Xrotation Zrotation Yrotation
	JOINT abdomen
	{
		OFFSET 0.000000 3.402643 0.000000 
		CHANNELS 3 Xrotation Zrotation Yrotation
		JOINT chest
		{
			OFFSET 0.000000 8.438565 -0.680529 
			CHANNELS 3 Xrotation Zrotation Yrotation
			JOINT neck
			{
				OFFSET 0.000000 10.207942 -0.272212 
				CHANNELS 3 Xrotation Zrotation Yrotation
				JOINT head
				{
					OFFSET 0.000000 3.130431 0.000000 
					CHANNELS 3 Xrotation Zrotation Yrotation
					End Site
					{
						OFFSET 0.000000 3.130435 0.000000 
					}
				}
			}
			JOINT lCollar
			{
				OFFSET 3.470700 6.669187 -0.816635 
				CHANNELS 3 Yrotation Zrotation Xrotation
				JOINT lShldr
				{
					OFFSET 3.198488 0.000000 0.000000 
					CHANNELS 3 Zrotation Yrotation Xrotation
					JOINT lForeArm
					{
						OFFSET 10.139888 0.000000 0.000000 
						CHANNELS 3 Yrotation Zrotation Xrotation
						JOINT lHand
						{
							OFFSET 8.370511 0.000000 0.000000 
							CHANNELS 3 Zrotation Yrotation Xrotation
							End Site
							{
								OFFSET 4.083176 0.000000 0.000000 
							}
						}
					}
				}
			}
			JOINT rCollar
			{
				OFFSET -3.470700 6.669187 -0.816635 
				CHANNELS 3 Yrotation Zrotation Xrotation
				JOINT rShldr
				{
					OFFSET -3.198488 0.000000 0.000000 
					CHANNELS 3 Zrotation Yrotation Xrotation
					JOINT rForeArm
					{
						OFFSET -10.139888 0.000000 0.000000 
						CHANNELS 3 Yrotation Zrotation Xrotation
						JOINT rHand
						{
							OFFSET -8.370511 0.000000 0.000000 
							CHANNELS 3 Zrotation Yrotation Xrotation
							End Site
							{
								OFFSET -4.083176 0.000000 0.000000 
							}
						}
					}
				}
			}
		}
	}
	JOINT lThigh
	{
		OFFSET 5.308129 -1.633274 1.361059 
		CHANNELS 3 Xrotation Zrotation Yrotation
		JOINT lShin
		{
			OFFSET -2.041588 -20.007561 0.000000 
			CHANNELS 3 Xrotation Zrotation Yrotation
			JOINT lFoot
			{
				OFFSET 0.000000 -19.190928 -1.224953 
				CHANNELS 3 Xrotation Yrotation Zrotation
				End Site
				{
					OFFSET 0.000000 -2.449906 4.627600 
				}
			}
		}
	}
	JOINT rThigh
	{
		OFFSET -5.308129 -1.633274 1.361059 
		CHANNELS 3 Xrotation Zrotation Yrotation
		JOINT rShin
		{
			OFFSET 2.041588 -20.007561 0.000000 
			CHANNELS 3 Xrotation Zrotation Yrotation
			JOINT rFoot
			{
				OFFSET 0.000000 -19.190928 -1.224953 
				CHANNELS 3 Xrotation Yrotation Zrotation
				End Site
				{
					OFFSET 0.000000 -2.449906 4.627600 
				}
			}
		}
	}
}
MOTION
Frames: 8
Frame Time: 0.033333
-0.371396 48.581356 20.295858 -179.980469 178.134766 -0.898438 0.000000 0.000000 0.000000 1.250000 3.623047 0.020148 17.519533 2.890625 -4.286617 -14.101563 2.070312 -5.039062 2.822266 -11.787108 0.146484 -73.027344 -1.533203 32.558594 -31.757811 8.037110 2.234963 -6.367188 -5.849610 -15.615234 -6.357422 7.070312 0.321064 75.566406 4.169922 39.960938 20.097658 -7.304688 1.680929 2.802735 7.646485 -25.887369 -0.438474 12.970848 -3.440460 15.906679 -3.720729 -3.609301 -13.929214 11.191306 -5.077540 6.488815 -6.362817 -1.352033 2.615888 4.958733 7.906786 -9.880689 -23.144444 3.981498 
-0.319986 48.576122 20.415892 179.794937 178.457031 -1.054425 0.000000 0.000000 0.000000 1.152344 3.867188 -0.429688 18.603516 2.646484 -4.032752 -14.160156 1.640625 -4.667689 1.123047 -12.460938 -0.212737 -67.675781 -1.845703 26.650393 -32.900394 3.535156 2.021484 -10.761719 -4.746094 -10.205885 -6.250000 7.343750 0.234375 75.087891 4.580079 40.488281 22.871094 -6.308594 1.777344 5.839844 7.148316 -15.945806 -4.341643 12.149760 -4.327581 22.172792 -3.173913 -2.006850 -13.570210 9.756623 -5.116033 5.805758 -6.889263 -1.482651 3.248105 5.366013 8.701740 -10.285692 -23.432930 3.916790 
-0.249215 48.530132 20.449348 -179.394531 178.642578 -0.048828 0.000000 0.000000 0.000000 2.949219 4.394531 -1.318359 17.578125 3.632813 -4.159537 -12.617188 0.263672 -4.580030 -0.937500 -12.646485 -0.546875 -63.535156 -3.623047 28.466797 -32.089840 3.398438 1.640046 -14.130858 -4.707031 -13.301581 -7.099609 7.119141 0.283203 73.339844 7.236329 41.055920 24.306641 -4.501953 1.611328 7.031250 7.656250 -7.792969 -8.172691 12.079103 -5.623228 29.402561 -3.599909 -1.672543 -11.423065 8.387981 -5.607238 6.804236 -7.038620 -1.025154 3.190564 5.533374 7.683908 -10.873367 -23.521040 4.289114 
-0.251875 48.485458 20.556633 -178.720703 178.740234 0.605683 0.000000 0.000000 0.000000 4.003906 4.335938 -2.880121 17.822268 4.062500 -3.993449 -11.650391 0.302734 -4.433542 -2.802735 -12.304688 -0.781250 -60.429688 -4.306641 29.658201 -30.048826 3.095703 1.327598 -11.337892 -4.687500 -14.423830 -6.767578 7.958984 0.233023 70.595703 8.632813 40.888676 25.615232 -3.857422 1.445313 8.505859 8.027344 -6.269531 -12.615329 11.844206 -3.195669 37.613461 -1.193568 -5.866625 -8.104942 7.014230 -6.970520 7.338534 -7.251462 -0.453968 3.532277 5.777147 7.208439 -11.689390 -24.071127 4.541116 
-0.286071 48.460861 20.637272 -178.320313 178.613281 0.879143 0.000000 0.000000 0.000000 4.863281 4.443359 -3.623047 18.457031 3.339844 -3.984375 -11.318359 1.738281 -4.697266 -3.798828 -12.714844 -0.888672 -57.968750 -5.771485 28.437498 -26.904299 2.470703 1.005859 -7.138672 -3.505859 -10.215441 -5.605468 8.623047 0.115723 68.085938 9.404296 40.039063 26.650391 -4.160156 1.377662 9.785156 8.007813 -6.064454 -16.864164 12.118423 -3.595324 44.569534 0.231400 -10.154285 -5.228629 6.586746 -8.311263 7.563136 -7.123748 -0.959854 3.744864 5.724311 7.470240 -11.647964 -24.021824 4.552487 
-0.463955 48.440601 20.684536 -178.066406 178.476563 -0.146225 0.000000 0.000000 0.000000 6.015625 4.609375 -2.948434 18.261719 1.826172 -4.052401 -10.654297 3.867187 -5.018873 -4.697266 -13.662109 -1.035156 -56.679688 -7.070313 24.735126 -23.964844 3.261719 0.830078 -2.978516 -1.464844 -3.281250 -4.667969 8.613281 0.058594 66.494141 10.576171 39.667969 26.757813 -4.697266 1.328125 8.496094 8.330078 -8.134765 -19.244886 12.566618 -5.311540 48.175747 0.841558 -14.516394 -4.188924 6.094556 -8.805632 7.264674 -7.448888 -0.429793 4.256083 5.863661 7.906466 -11.504827 -23.933920 4.691655 
-0.754329 48.434948 20.703594 -178.535156 178.583984 -1.630859 0.000000 0.000000 0.000000 5.917969 4.384766 -1.669922 18.369141 1.435547 -4.257813 -10.107422 4.970704 -5.360482 -5.820313 -14.892579 -1.259766 -56.103516 -7.177734 20.574951 -22.480469 4.433594 0.839089 4.609375 -0.625000 -1.884766 -4.394531 8.662109 0.058594 64.873047 11.201171 38.937443 26.337891 -5.253907 1.348550 7.832031 8.515625 -10.458986 -20.705938 12.321252 -7.764448 49.203506 1.566526 -16.546284 -5.814217 5.475654 -8.075189 6.240465 -8.085199 0.802564 4.528609 5.727850 7.801183 -11.191267 -23.680452 5.362199 
-1.143276 48.436203 20.532253 -178.115234 178.505859 -3.769277 0.000000 0.000000 0.000000 6.777344 4.042969 -0.693359 17.832031 1.845703 -4.589844 -8.974609 5.107422 -5.682724 -6.533203 -15.058595 -1.357422 -56.562500 -6.835938 18.613283 -22.529297 5.937500 1.035156 9.277344 -0.908203 -9.628906 -4.072266 8.662109 0.048828 63.935551 11.611329 37.482437 25.644529 -5.927735 1.386719 7.939454 8.115234 -12.664637 -19.266043 12.040427 -11.411889 47.414936 1.888230 -16.339518 -8.320058 6.494488 -6.471777 6.069722 -8.537762 1.284584 4.976306 5.268825 8.697213 -10.467252 -22.989431 5.550603 
